<svg width="40" height="40" viewBox="0 0 40 40" fill="none" xmlns="http://www.w3.org/2000/svg">
<circle cx="20" cy="20" r="19" stroke="white" stroke-opacity="0.5" stroke-width="2"/>
<path d="M31 18.1414C31 17.6566 30.9197 17.0909 30.9197 16.4444C30.8394 15.798 30.7591 15.1515 30.6788 14.5859C30.5183 13.9394 30.2774 13.4545 29.7956 13.0505C29.3942 12.6465 28.8321 12.404 28.2701 12.3232C26.4234 12.0808 23.6934 12 20 12C16.3066 12 13.4963 12.0808 11.7299 12.3232C11.1679 12.404 10.6058 12.6465 10.2044 13.0505C9.80292 13.4545 9.48175 13.9394 9.32116 14.5859C9.16058 15.1515 9.0803 15.7172 9.0803 16.4444C9 17.0909 9 17.6566 9 18.1414C9 18.6263 9 19.1919 9 20C9 20.8081 9 21.4545 9 21.8586C9 22.3434 9.0803 22.9091 9.0803 23.5556C9.16059 24.202 9.24087 24.8485 9.32116 25.4141C9.48175 26.0606 9.72263 26.5455 10.2044 26.9495C10.6058 27.3535 11.1679 27.596 11.7299 27.6768C13.5766 27.9192 16.3066 28 20 28C23.6934 28 26.5037 27.9192 28.2701 27.6768C28.8321 27.596 29.3942 27.3535 29.7956 26.9495C30.1971 26.5455 30.5183 26.0606 30.6788 25.4141C30.8394 24.8485 30.9197 24.2828 30.9197 23.5556C31 22.9091 31 22.3434 31 21.8586C31 21.3737 31 20.8081 31 20C31 19.1919 31 18.5454 31 18.1414ZM24.2555 20.6465L17.9124 24.6061C17.8321 24.6869 17.6715 24.7677 17.511 24.7677C17.3504 24.7677 17.2701 24.7677 17.1095 24.6869C16.8686 24.5252 16.708 24.2828 16.708 23.9596V15.9596C16.708 15.6364 16.8686 15.3939 17.1095 15.2323C17.3504 15.0707 17.6715 15.0707 17.9124 15.2323L24.2555 19.1919C24.4964 19.3535 24.6569 19.596 24.6569 19.8384C24.6569 20.0808 24.4964 20.4848 24.2555 20.6465Z" fill="white"/>
</svg>
